<?xml version="1.0" encoding="UTF-8"?>
<svg id="Calque_2" data-name="Calque 2" xmlns="http://www.w3.org/2000/svg" viewBox="0 0 1657.6 456.8">
  <defs>
    <style>
      .cls-1 {
        fill: #414042;
      }

      .cls-2 {
        fill: #f47e20;
      }
    </style>
  </defs>
  <g id="Logo_-_Horizontal" data-name="Logo - Horizontal">
    <g id="Back_-_copie" data-name="Back - copie">
      <g>
        <path class="cls-2" d="M394.2,178.27c-8.5,36.25-17.41,72.82-25.36,105.91l9.54-39.7c-4.76,19.84-8.88,36.57-13.84,56.78,1.34-6.12,4.57-19.19,5.13-22.41,11.49-48.48,23.42-97.03,35.4-144.08-1.73,9.48-3.71,17.03-5.6,23.88-1.9,6.85-3.71,12.99-5.28,19.62Z"/>
        <path class="cls-2" d="M351.59,354.95c1.16-4.87,2.28-9.62,3.4-14.31-1.19,4.99-2.35,9.9-3.4,14.31Z"/>
        <path class="cls-2" d="M182.22,33.74c-5.58-1.19-11.19-2.38-16.61-3.54,5.47,1.1,11.04,2.32,16.61,3.54Z"/>
        <path class="cls-2" d="M406.69,114.08c.59-2.93,1.19-5.88,1.8-8.88.78-3.32,1.56-6.64,2.35-9.99.47-2.02.95-4.06,1.43-6.1.48-2.11.96-4.24,1.45-6.38-16.33-3.71-33.06-7.51-49.97-11.35,7.77,1.75,15.72,3.47,23.73,5.2,8.9,1.92,17.87,3.86,26.79,5.79-.7,3.16-1.39,6.31-2.13,9.45-.63,2.65-1.25,5.29-1.88,7.92-1.17,4.84-2.35,9.63-3.56,14.36Z"/>
        <path class="cls-2" d="M400.15,138.01c-5.09,22.79-10.51,45.87-15.68,67.42,5.09-21.57,10.37-44.29,15.68-67.42Z"/>
        <path class="cls-2" d="M116.38,154.66c.09-.08.05.37-.05,1.02-.14.68-.25,1.3-.32,1.82-2.21,9.18-4.41,18.33-6.61,27.47.49-2.28.84-4.43,1.36-6.75,2.42-10.11,3.24-12.17,5.62-23.56Z"/>
        <path class="cls-2" d="M188.43,35.08c.19.03.39.05.59.08,1.92.4,3.8.79,5.68,1.18.22.06.43.11.67.18-2.3-.48-4.62-.96-6.95-1.44Z"/>
        <path class="cls-2" d="M119.1,142.97c.18-.15.37-.31.66-1.08-1.25,5.18-2.49,10.34-3.73,15.51.11-.63.21-1.23.3-1.71.69-3.47,2.07-8.83,2.77-12.71Z"/>
        <path class="cls-2" d="M145.84,32.79c.23.06.42.02.64-.05.12-.03.23-.06.33-.09.03,0,.04-.02.09-.02.13.02.25.04.37.06.24.04.46.07.66.1,8.53,2.18,17.06,4.36,27.17,6.81,1.59.27,4.91,1.02,8.08,1.55,1.83.56,3.8,1.14,5.9,1.73-14.09-3.26-28.38-6.57-43.3-10.03-.06.18-.13.35-.18.56l-.06.32-.02.08-.05.24-.27,1.16c-.73,3.1-1.48,6.26-2.23,9.43.69-3.01,1.38-6.06,2.09-9.15l.27-1.16.12-.5v-.09s.07-.36.07-.36c.04-.24.13-.44.19-.65l.12.04Z"/>
        <path class="cls-2" d="M346.79,353.63c-29.72-6.61-63.98-14.58-92.99-20.84,33.92,7.79,80.79,18.29,85.76,19.6,2.49.65-9.15-1.88-24.73-5.32-15.58-3.45-35.11-7.78-48.41-10.72q3.51.82,7.02,1.63c-3.5-.81-7.02-1.63-10.16-2.27,7.01,1.63,20.66,4.7,24.53,5.66l-6.29-1.27c17.88,4.16,51.53,11.42,69.46,15.37-37.72-8.25-81.69-17.86-128.07-28.01-23.21-5.02-47.03-10.16-70.94-15.33-11.96-2.56-23.95-5.12-35.9-7.68-5.98-1.27-11.95-2.55-17.9-3.81-2.98-.63-5.95-1.27-8.91-1.9l-4.62-.98c-2.07-.43-4.09-.9-6.1-1.38,3.39-15.85,6.75-31.52,10.04-46.87,12.57-59.56,23.46-115.01,33.08-167.08,1.9-9.82,6.97-33.31,10.65-50.11l1.53-7.27c.6-2.78,1.27-5.47,1.91-8.22,8.81,1.83,17.62,3.66,26.42,5.49,6.69,1.36,13.38,2.72,20.05,4.08,13.35,2.7,26.67,5.34,39.93,7.89,31.41,6.35,62.25,12.98,93.59,19.8,15.67,3.42,31.47,6.86,47.54,10.37,8.03,1.74,16.13,3.49,24.31,5.25,11.02,2.35,22.15,4.72,33.4,7.12.43.09.86.18,1.31.27-.71,3.21-1.47,6.57-2.23,9.82-.82,3.23-1.65,6.45-2.39,9.19-.9,2.87-1.71,5.18-2.2,6.17-.49.99-.67.65-.3-1.79.09-.61.22-1.35.38-2.23.08-.44.18-.92.27-1.43.13-.64.27-1.33.42-2.07.45-2.08.96-4.44,1.53-7.1.54-2.63,1.14-5.55,1.81-8.79-.93-.19-2.14-.43-3.39-.68-8.68-1.74-17.39-3.48-26.11-5.23-6.86-1.39-13.73-2.79-20.62-4.19-13.77-2.84-27.56-5.77-41.36-8.75,3.32.16,16.39,3.32,22.6,4.24-20.27-4.72-37.05-8.48-57.03-12.72,13.32,2.83,26.63,5.65,39.95,8.48-33.28-7.07-70.05-15.06-106.52-22.63-13.33-2.85-24.65-6.89-43.73-9.85,47.32,10.74,96.04,21.95,144.73,32.48-.09,0-.2-.02-.26-.01,21.72,4.69,41.38,8.94,62.33,13.47-6.53-1.33-13.19-2.67-18.91-4.01,6.86,1.59,13.7,3.17,20.52,4.74,3.41.78,6.82,1.55,10.23,2.33l7.63,1.71,8.17,1.79c-.76,3.32-1.46,6.64-2.26,9.93l-1.17,4.94-.8,3.24c-1.01,4.12-2.02,8.23-3.04,12.34-2.01,8.23-4.02,16.45-6.02,24.67,1.8-8.1,3.62-16.29,5.45-24.56.93-4.13,1.86-8.29,2.8-12.46.59-2.63,1.18-5.26,1.78-7.9.72-3.13,1.34-6.26,2.02-9.38-10.42-2.19-20.91-4.4-31.46-6.62-9.01-1.93-18.06-3.87-27.13-5.81-18.14-3.95-36.39-7.92-54.59-11.89-36.39-7.96-72.6-15.89-107.47-23.24,24.02,6.1,56.41,11.94,77.26,17.58-39.44-8.62-79-17.42-119.44-26.47,3.02.59,5.97,1.16,8.92,1.74-3.49-.82-7.01-1.65-10.55-2.48-2.1-.48-4.22-.96-6.33-1.44-2.58-.57-5.16-1.14-7.75-1.71-.39,1.65-.78,3.31-1.17,4.97l-1.12,5.06c-.53,2.45-1.06,4.91-1.59,7.36-1,4.68-2,9.36-3,14.03-1.99,9.34-3.97,18.61-5.97,27.65-.5,2.24-1,4.47-1.5,6.72.5-2.22,1-4.47,1.5-6.72,2.1-9.41,4.18-18.75,6.25-28.02,1.03-4.63,2.06-9.25,3.09-13.85.54-2.42,1.08-4.84,1.62-7.25.7-3.23,1.44-6.37,2.19-9.49,5.28,1.17,10.35,2.3,15.42,3.42-2.17-.45-4.36-.9-6.6-1.36-2.83-.6-5.71-1.21-8.67-1.83-.51,2.27-1.06,4.53-1.57,6.91-.45,2.05-.91,4.15-1.38,6.3-.8,3.61-1.64,7.37-2.52,11.34.74-2.84,1.58-6.2,2.46-9.87.48-2.02.97-4.12,1.48-6.28.59-2.61,1.24-5.21,1.87-7.84,2.42.55,4.88,1.11,7.35,1.68,13.53,3,27.07,6,40.47,8.97-7.78-1.66-15.52-3.32-23.14-4.94-8.24-1.71-16.36-3.39-24.26-5.03-.63,2.87-1.23,5.69-1.79,8.48-.47,2.34-.93,4.65-1.39,6.95,1.15-4.96,2.3-9.95,3.46-14.99,23.83,5.38,48.1,10.86,71.88,16.23-15.31-3.31-30.61-6.62-45.89-9.93-8.48-1.92-16.99-3.84-25.67-5.8-3.99,17.75-8.04,35.77-12.12,53.92.21-1,.42-2,.63-3-.43,1.99-.86,3.98-1.29,5.96-2.27,10.21-4.54,20.47-6.83,30.79-2.01,9.27-3.84,18.39-5.63,27.46-.34,1.54-.67,3.06-1,4.58.52-2.92.7-4.35-.59,1.22-5.57,23.76-10.68,49.73-17.11,76.97-1.68,7.15-3.74,16.83-5.94,27.29-.7,2.82-.98,4.32-1.2,5.67-.48,2.25-.96,4.54-1.44,6.81-1.21,5.55-2.42,11.13-3.55,16.59,1.16-5.41,2.36-11.01,3.55-16.59.45-2.09.9-4.16,1.34-6.22-.23,1.43-.46,2.95-1.13,6.02,8.46-38.24,17.24-77.89,26.06-117.77-.44,2.41-1.06,5.82-1.32,7.24.77-3.94,1.55-7.87,2.32-11.82,2.79-12.89,5.57-25.79,8.36-38.68-.77,3.86-1.45,7.45-1.99,10.61,6.32-28.81,12.68-57.75,19.05-86.78,8.48,1.84,16.99,3.68,25.5,5.53,34.63,7.86,68.91,15.65,103.09,23.41-18.33-4.55-37.58-9.02-57.2-13.48,52.28,11.32,104.66,22.69,156.67,34.7-9.54-1.44-22.56-3.86-28.62-4.37.28.47,17.05,4.35,7.22,2.4-35.84-6.85-61.16-13.49-76.15-14.65-2.86-.07,36.59,10.96,23.59,8.48-10.82-2.26-30.12-6.45-50.94-11.06-6-1.39-12.21-2.84-18.65-4.34-.79-.22-2.17-.41-3.9-.67-22.55-5.04-44-9.92-55.86-12.74-4.41-1.05-8.77-2.08-13.12-3.12-1.13-.31-2.18-.61-3.13-.9-.47-.15-.92-.29-1.35-.42-.28-.08-.25-.1-.31-.13l-.13-.09c-.54.01-.99-.01-1.41-.06l-.05.38c-2.38,10.03-4.73,19.95-7.06,29.8-1.61,6.35-3.23,12.68-4.82,18.95.14-.11.52-1.1.35.14-3.34,14.35-6.65,28.6-9.96,42.82-1.46,5.75-2.86,11.02-4.2,15.67-2.68,15.65-11.41,51.19-16.97,76.01l.04-.03c-2.88,12.47-5.77,25.03-8.71,37.75-.57,2.08-1.1,4.06-1.61,5.92-.6,3.17-1.35,6.48-1.66,8.06-1.22,5.05-2.35,9.72-3.43,14.19-.55,2.23-1.08,4.42-1.61,6.58-.23.94-.46,1.87-.69,2.8-.09.38-.19.77-.31,1.17,0,.08-.02.18-.03.29.34.04.74.09,1.17.13.23.02.38.02.69.07.66.14,1.34.29,2.04.44,6.65,1.54,13.08,3.03,19.36,4.49,7.36,1.73,14.8,3.48,22.33,5.25,25.33,5.97,50.26,11.84,74.96,17.66.78.23.95.34,1.14.45,3.86.8,9.23,2.1,12.68,2.85-.66-.13-1.08-.2-.99-.14,11.35,2.49,13.43,3.13,23.59,5.5,2.3.5,4.45.97,6.71,1.46,1.11.26,2.23.52,3.36.78,11.46,2.86,22.94,5.38,35.76,8.32,12.79,2.95,25.58,5.9,38.37,8.85,10.11,2.36,14.01,3.27,21.02,4.9Z"/>
        <path class="cls-2" d="M108.6,188.3c-2.86,11.94-5.72,23.83-8.57,35.71,2.95-12.81,5.36-24.32,8.57-35.71Z"/>
        <path class="cls-2" d="M302.86,68.21c4.64,1.43,9.91,2.9,15.64,4.39-30.45-6.99-60.75-13.94-91.67-21.04l-.03-.05c24.82,5.48,60.34,14.36,76.06,16.69Z"/>
        <path class="cls-2" d="M116.32,155.68c-.08.48-.19,1.08-.3,1.71,0,.04-.02.06-.03.11.07-.52.19-1.13.32-1.82Z"/>
        <path class="cls-2" d="M362.93,73.83c.99.22,1.96.44,2.95.67-7.49-1.58-14.99-3.16-22.51-4.75,6.02,1.17,12.7,2.59,19.56,4.08Z"/>
        <path class="cls-2" d="M403.39,116.87c-3.3,15.29-6.62,30.6-9.92,45.9-4.45,19.63-8.87,38.9-13.17,57.27,7.54-34.23,15.24-68.53,23.09-103.17Z"/>
        <path class="cls-2" d="M361.49,82.07c6.24,1.63,12.58,3.27,18.93,4.93-6.4-1.5-12.75-2.99-19.09-4.47,1.23.13.26-.29.16-.46Z"/>
        <path class="cls-2" d="M300.08,60.37c1.53.34,3.07.67,4.59,1.01-3.94-.74-7.89-1.49-11.84-2.24,1.44.25,4.86.83,7.25,1.23Z"/>
        <path class="cls-2" d="M397.71,102.76c.47-2.36.94-4.72,1.41-7.07l.7-3.52c.02-.1.02-.07.02-.08h.01s.02-.03.02-.03l.05-.04.09-.08s-.01.06-.02.1l-.12.82c-.2,1.4-.39,2.8-.59,4.21-.49,1.48-1.02,3.42-1.58,5.69Z"/>
        <path class="cls-2" d="M383.89,176.25c-1.25,6.48-2.46,12.76-3.62,18.79,1.38-7.48,2.79-15.15,4.19-22.72-.22,1.75-.39,3.13-.57,3.94Z"/>
      </g>
      <g>
        <path class="cls-2" d="M302.55,438.63c-2.28,3.75-4.65,7.5-6.77,10.9l2.55-4.08c-1.28,2.02-2.35,3.73-3.68,5.83.37-.64,1.22-1.98,1.39-2.32,3.07-5.01,6.23-9.98,9.4-14.76-.99,2.05-2.05,3.06-2.88,4.43Z"/>
        <path class="cls-2" d="M291.21,456.8c.31-.5.61-.99.91-1.48-.32.52-.62,1.02-.91,1.48Z"/>
        <path class="cls-2" d="M320.91,404.43c.3-.6.6-1.21.92-1.78-.27.6-.6,1.19-.92,1.78Z"/>
        <path class="cls-2" d="M306.01,431.74c.17-.32.33-.63.49-.95,1.41-2.3,2.84-4.63,4.3-7-1.57,2.58-3.11,5.42-4.79,7.95Z"/>
        <path class="cls-2" d="M304.31,434.14c-1.37,2.39-2.81,4.78-4.17,7.01,1.36-2.28,2.75-4.62,4.17-7.01Z"/>
        <path class="cls-2" d="M327.37,384.44c-.07-.02-.09-.1-.09-.19.02-.08.03-.16.02-.24l1.74-2.84c-.09.27-.08.56-.21.82-.65,1.04-1.05,1.11-1.46,2.45Z"/>
        <path class="cls-2" d="M320.56,405.09v.07c-.11.21-.21.41-.31.61-.02.02-.03.04-.05.06.11-.25.24-.5.37-.75Z"/>
        <path class="cls-2" d="M326.7,385.69c-.12-.04-.25-.09-.38-.05l.97-1.61c0,.08-.02.16-.01.23-.11.42-.51.94-.57,1.44Z"/>
        <path class="cls-2" d="M319.59,398.04c-.17.37-.14.79-.17.99-.58.86-1.15,1.73-1.75,2.8-.04.2-.21.56-.28.95-.17.16-.33.35-.5.55,1.19-2.42,2.42-4.88,3.73-7.4-.32.69-.65,1.4-1.02,2.11Z"/>
        <path class="cls-2" d="M353.13,342.57c-1.45,3.3-4.35,6.42-5.09,10.02,2.54-3.27,5.5-8.1,7.43-7.7,1.92.39-2.68,4.93-4.18,7.77q.37-.28.75-.55c-.37.27-.75.55-.76.98.74-.55,1.88-1.8,2.63-1.92l-.02.85c2.27-1.2,4.65-4.51,7.03-5.65-4.79,3.34-8.51,8.49-11.93,14.12-3.41,5.64-6.56,11.76-9.78,17.3-3.32,6.36-5.88,12.56-8.39,18.29-.53,1.06-2.14,3.39-3.32,5.06-1.82,3.09-3.66,6.17-5.35,9.28-3.92,6.46-8.34,12.35-12.74,19.12-.9,1.34-2.46,2.99-.43-.41,1.63-2.84,3.34-5.69,5.12-8.51-.04.42-.99,1.7-1.27,2.39,1.42-2.01,2.57-3.69,3.85-5.73l-2.57,4.07c2.14-3.39,4.58-7.11,6.83-10.87.84-1.37,2.33-2.14,3.05-4.34-3.37,4.66-6.76,9.51-9.89,14.48,0-.01,0-.02,0-.03-1.4,2.22-2.66,4.22-4.01,6.36.4-.67.8-1.37,1.2-1.94-2.09,3.04-4.03,6.11-5.97,9.18,2.53-4.45,5.28-9.11,8.12-13.74,2.83-4.64,5.74-9.25,8.3-13.76-1.88,2.29-3.39,5.88-5.11,7.83,2.45-4.08,4.96-8.14,7.6-12.26-.16.33-.31.65-.45.98,1.87-2.42,3.31-5.31,4.95-7.86l.45-.68-.45.68c-1.55,2.32-3.05,4.61-4.51,6.88.54-1.11,1.22-2.24,2.08-3.56-.62.62-1.32,1.63-2.03,2.64-.84,1.37-1.68,2.75-2.51,4.11,1.24-2.13,2.37-4.28,3.29-6.32-1.86,2.78-3.61,5.75-5.38,8.61l2.68-4.84c1.63-2.64,3.26-5.29,4.92-7.97l-.16.32.35-.63c.64-1.06,1.28-2.11,1.92-3.18.55-.97.98-1.99,1.36-3.02l.27-.48c-.08.36-.07.56.33,0,1.75-2.31,2.79-5.3,4.89-7.9.55-.68,1.09-1.72,1.63-2.86.26-.25.3-.43.29-.62.12-.25.23-.5.35-.74.32-.59.66-1.17.9-1.79-.32.57-.61,1.18-.9,1.79l-.35.66c-.01-.2-.04-.42.14-.75-2.4,3.94-4.91,8.02-7.27,12.21.06-.29.19-.69.22-.87-.16.45-.33.9-.49,1.35-.76,1.36-1.5,2.72-2.23,4.09.18-.43.32-.85.39-1.24-2.25,3.81-4.4,7.71-6.56,11.62-2.2,3.56-4.37,7.09-6.47,10.64,1.28-1.83,2.54-3.79,3.79-5.81-3.06,5.5-6.24,10.96-9.53,16.32.4-1.08,1.04-2.5,1.15-3.26-.14-.03-1.16,1.72-.66.65,1.72-3.96,3.52-6.48,3.57-8.47-.08-.43-2.98,3.47-2.41,2,.51-1.21,1.47-3.34,2.52-5.63.34-.64.68-1.31,1.03-2.01.06-.08.08-.25.12-.47,1.15-2.47,2.28-4.82,2.96-6.08.26-.47.51-.93.76-1.39.18-.22.35-.39.53-.5.08-.34.17-.67.28-.99.67-1.25,1.32-2.48,1.98-3.7.44-.64.88-1.28,1.31-1.9-.08-.03-.23.03-.24-.14.8-1.55,1.58-3.08,2.37-4.61.41-.57.84-1.06,1.31-1.45.13-2.07,2.48-5.69,3.71-8.44h-.03c.68-1.36,1.37-2.71,2.07-4.08.19-.18.39-.35.61-.49.03-.42.2-.78.21-.99.66-1.04,1.3-1.86,1.96-2.68.01-.21-.11-.69.06-1.05.39-.7.73-1.4,1.05-2.1.44-.78.88-1.56,1.32-2.36,1.53-2.66,3.12-5.22,4.76-7.73.17-.01.34.06.51.13,0-.53.47-1.02.54-1.45.02.1.06.18.15.22.35-1.37.87-1.37,1.57-2.39.12-.25.07-.57.15-.84l.23-.33c1.39-.81,1.79-2.18,2.53-3.54l2.78-3.76c.72-1,1.48-1.11,2.23-1.66Z"/>
        <path class="cls-2" d="M329.25,380.83c.78-1.22,1.56-2.43,2.33-3.65-.71,1.38-1.17,2.71-2.33,3.65Z"/>
        <path class="cls-2" d="M311.14,415.85c-.37.44-.73.98-1.09,1.58,1.61-3.32,3.21-6.62,4.84-9.99h.02c-1.24,2.74-3.36,6.5-3.77,8.41Z"/>
        <path class="cls-2" d="M327.28,384.25c0-.07,0-.15.01-.23,0,0,0,0,0-.01,0,.08,0,.16-.02.24Z"/>
        <path class="cls-2" d="M310.13,423.38l-.18.31,1.27-2.4c-.31.65-.69,1.36-1.09,2.09Z"/>
        <path class="cls-2" d="M305.25,431.78l-2.67,4.84c-1.18,2.02-2.34,3.99-3.5,5.97,2.02-3.6,4.07-7.19,6.17-10.81Z"/>
        <path class="cls-2" d="M307.89,422.17c-.37.65-.76,1.33-1.15,2,.34-.7.68-1.39,1.02-2.07-.02.15.08.07.12.08Z"/>
        <path class="cls-2" d="M313.71,416.71l-.27.48c.19-.43.38-.87.56-1.31-.06.18-.2.54-.3.83Z"/>
        <path class="cls-2" d="M304.12,429.44c.25-.51.51-1.02.76-1.52-.13.31-.24.63-.35.95-.12.14-.26.34-.4.57Z"/>
        <path class="cls-2" d="M300.36,437.43c-.34.7-.66,1.38-.98,2.03.38-.82.76-1.65,1.14-2.48-.07.2-.12.36-.17.44Z"/>
      </g>
      <g>
        <path class="cls-2" d="M138.1,18.48c3.33-4.13,7.02-8.03,10.21-11.68-1.28,1.46-2.55,2.92-3.83,4.38,1.91-2.19,3.68-3.89,5.94-5.84-.28.95-1.83,2.13-1.72,2.87-4.79,5.23-10.13,9.99-15.27,14.64.87-2.92,3.39-2.92,4.67-4.38Z"/>
        <path class="cls-2" d="M156.22,0c-.47.54-.93,1.05-1.39,1.56.45-.58.9-1.14,1.39-1.56Z"/>
        <path class="cls-2" d="M110.41,56.75c-.49.65-.99,1.3-1.51,1.89.44-.68.98-1.28,1.51-1.89Z"/>
        <path class="cls-2" d="M134.15,27.49c-.21.39-.44.76-.69,1.12-2.31,2.3-4.68,4.61-7.1,6.95,2.58-2.59,4.81-5.84,7.79-8.07Z"/>
        <path class="cls-2" d="M137.44,25.73c2.21-2.49,4.66-4.82,7.23-6.74-2.47,2.01-4.87,4.32-7.23,6.74Z"/>
        <path class="cls-2" d="M98.63,79.7c.09.07.11.17.1.29-.04.09-.07.19-.07.29-1.02.89-2.04,1.77-3.07,2.64.18-.29.23-.66.46-.91,1.13-.97,1.72-.85,2.58-2.31Z"/>
        <path class="cls-2" d="M110.99,56.05s0-.07.01-.1c.17-.23.33-.45.5-.67.03-.02.06-.03.09-.05-.18.29-.39.56-.6.82Z"/>
        <path class="cls-2" d="M99.83,78.49c.17.12.35.25.56.28-.57.5-1.14,1.01-1.72,1.51.03-.1.05-.19.06-.28.23-.47.92-.91,1.1-1.5Z"/>
        <path class="cls-2" d="M112.73,66.94c.32-.37.29-.98.36-1.22,1.06-.73,2.12-1.46,3.25-2.43.07-.24.39-.61.54-1.1.31-.08.62-.2.93-.34-2.24,2.36-4.56,4.74-6.99,7.16.6-.7,1.22-1.4,1.92-2.08Z"/>
        <path class="cls-2" d="M55.26,120.49c2.7-3.41,6.93-6.32,8.93-10.22-3.88,3.16-8.7,8.02-10.58,7.29-1.88-.74,4.46-5.11,7.02-8.03q-.49.24-.99.49c.49-.24.99-.49,1.13-.97-.99.48-2.61,1.7-3.45,1.7l.29-.97c-2.81.97-6.35,4.37-9.16,5.34,11.97-6.31,22.55-20.67,32.76-32.34,5.39-6.81,9.6-13.87,13.31-20.69.78-1.22,3.19-3.65,4.96-5.35,2.7-3.41,5.39-6.81,7.74-10.47,5.54-7.3,12.29-13.1,18.7-20.43,1.28-1.46,4.43-2.18,1.59,1.71-2.21,3.35-4.75,6.47-7.46,9.43-.11-.74,1.43-1.91,1.72-2.87-2.26,1.94-4.03,3.65-5.94,5.84,1.28-1.46,2.55-2.92,3.83-4.38-3.19,3.65-6.87,7.54-10.2,11.68-1.28,1.46-3.8,1.45-4.67,4.38,5.14-4.66,10.49-9.41,15.27-14.65,0,.02,0,.04,0,.06,2.08-2.38,4.07-4.44,6.12-6.71-.58.75-1.16,1.54-1.8,2.09,3.39-2.92,6.44-6.08,9.48-9.24-6.9,10.47-17.22,19.71-25.16,29.44,3.1-1.94,5.25-6.32,8.2-7.78-3.88,4.24-7.9,8.38-12.08,12.55.25-.37.48-.74.69-1.12-2.98,2.23-5.2,5.48-7.79,8.07-.24.23-.47.45-.71.68.24-.22.47-.45.71-.68,2.42-2.34,4.79-4.65,7.1-6.95-.85,1.25-1.92,2.43-3.29,3.74.99-.49,2.12-1.46,3.25-2.43,1.34-1.41,2.67-2.82,4.02-4.2-1.98,2.23-3.76,4.58-5.24,6.88,3.02-2.71,5.86-5.75,8.77-8.59-1.46,1.69-2.91,3.38-4.36,5.07-2.67,2.62-5.35,5.27-8.01,8,.09-.12.18-.23.27-.35-.19.22-.38.44-.57.65-1.04,1.07-2.08,2.14-3.11,3.24-.89,1.02-1.61,2.15-2.28,3.33-.15.17-.3.33-.44.5.15-.44.15-.71-.47-.18-2.75,2.19-4.61,5.6-7.86,8.03-.85.64-1.73,1.75-2.64,2.97-.38.21-.47.43-.5.67-.2.26-.4.53-.6.8-.53.61-1.07,1.21-1.51,1.89.52-.59,1.02-1.24,1.51-1.89.2-.23.4-.46.58-.69-.02.26-.03.55-.33.88,3.87-4.02,7.93-8.13,11.81-12.47-.12.36-.35.82-.41,1.04.28-.52.56-1.03.86-1.54,1.24-1.41,2.47-2.83,3.65-4.29-.3.49-.54.97-.68,1.46,3.69-3.88,7.22-7.94,10.73-12.03,3.61-3.55,7.21-7.04,10.72-10.59-2.22,1.61-4.31,3.51-6.36,5.51,4.97-5.77,10.04-11.48,15.58-16.71-.44,1.46-1.36,3.17-1.31,4.38.35.25,2.12-1.46,1.33-.24-2.64,4.63-5.94,6.65-5.62,9.82.2.73,5.82-2.02,4.89-.31-.91,1.3-2.66,3.51-4.6,5.85-.64.6-1.27,1.25-1.92,1.93-.11.06-.15.29-.2.58-2.15,2.49-4.26,4.81-5.54,5.99-.48.44-.95.87-1.41,1.31-.32.16-.64.25-.95.27-.15.41-.33.79-.54,1.14-1.24,1.18-2.45,2.36-3.64,3.55-.78.55-1.58,1.08-2.33,1.64.12.09.37.11.36.34-1.47,1.5-2.92,3-4.35,4.5-.71.49-1.44.87-2.2,1.11-.55,2.56-4.68,5.84-6.99,8.64l.04.03c-1.25,1.33-2.5,2.67-3.78,4.01-.3.14-.61.25-.93.33-.15.49-.46.85-.54,1.1-1.13.97-2.19,1.7-3.25,2.43-.07.24-.04.85-.36,1.22-.69.68-1.32,1.39-1.91,2.08-.76.76-1.54,1.52-2.33,2.29-2.67,2.57-5.38,5.04-8.1,7.45-.2-.03-.38-.15-.55-.28-.18.6-.87,1.03-1.1,1.5.01-.12,0-.22-.1-.29-.86,1.46-1.45,1.34-2.58,2.31-.22.25-.28.63-.45.91-.12.11-.25.21-.38.32-1.84.59-2.73,2.04-4.02,3.4-1.44,1.21-2.89,2.42-4.34,3.63-1.13.97-1.97.97-2.96,1.46Z"/>
        <path class="cls-2" d="M95.22,83.24c-1.34,1.14-2.68,2.28-4.02,3.4,1.29-1.36,2.18-2.81,4.02-3.4Z"/>
        <path class="cls-2" d="M128.53,49.18c.76-.24,1.49-.62,2.2-1.11-3.06,3.22-6.07,6.48-9.15,9.77l-.04-.03c2.3-2.8,6.43-6.08,6.99-8.64Z"/>
        <path class="cls-2" d="M98.73,79.99c0,.09-.03.18-.06.28,0,0,0,0-.01.01,0-.1.03-.2.07-.29Z"/>
        <path class="cls-2" d="M128.31,37.4c.1-.1.2-.21.3-.31-.67.87-1.34,1.73-2.04,2.58.47-.76,1.08-1.51,1.74-2.27Z"/>
        <path class="cls-2" d="M136.62,29.1c1.45-1.69,2.9-3.39,4.36-5.08,2.05-2,4.15-3.9,6.36-5.51-3.51,3.55-7.11,7.04-10.72,10.59Z"/>
        <path class="cls-2" d="M134.72,43.22c.75-.56,1.55-1.09,2.33-1.64-.66.66-1.32,1.32-1.97,1.98,0-.23-.24-.26-.36-.34Z"/>
        <path class="cls-2" d="M122.47,44.46c.15-.17.3-.33.44-.5-.29.51-.57,1.03-.85,1.54.07-.22.29-.69.41-1.04Z"/>
        <path class="cls-2" d="M142.18,36.63c-.5.47-1,.94-1.49,1.41.21-.36.39-.73.54-1.14.31-.01.63-.11.95-.27Z"/>
        <path class="cls-2" d="M149.34,28.75c.65-.68,1.28-1.33,1.92-1.93-.69.83-1.41,1.68-2.13,2.51.06-.29.09-.52.21-.58Z"/>
      </g>
    </g>
    <g id="Front_-_copie" data-name="Front - copie">
      <g>
        <path class="cls-2" d="M290.88,244.36c.34,37.23.26,74.86.38,108.89l-.14-40.83c.07,20.4-.08,37.62-.43,58.43-.43-6.27-.09-19.72-.67-22.99-.02-49.82.7-99.8,1.34-148.33,1.34,19.26-.52,31.21-.48,44.83Z"/>
        <path class="cls-2" d="M290.04,426.08c-.01-5.01-.02-9.88-.03-14.7.06,5.13.11,10.18.03,14.7Z"/>
        <path class="cls-2" d="M50.93,149.06c-5.71.08-11.44.15-16.98.17,5.58-.14,11.28-.14,16.98-.17Z"/>
        <path class="cls-2" d="M287.69,179c-.11-2.99-.19-6-.25-9.06.05-7.58.09-15.18.14-23.06-16.76-.13-33.93-.26-51.29-.39,7.96.05,16.09.03,24.29,0,9.12-.02,18.31-.05,27.46-.07,0,3.23-.01,6.45-.02,9.66-.02,2.72-.04,5.44-.06,8.15-.05,4.97-.14,9.91-.27,14.79Z"/>
        <path class="cls-2" d="M286.46,203.77c.06,23.35-.17,47.06-.77,69.22.46-22.16.66-45.49.77-69.22Z"/>
        <path class="cls-2" d="M15.09,281.37c.11-.09.2.35.27,1.01.03.7.08,1.32.14,1.84-.16,9.44-.31,18.85-.47,28.25-.06-2.34-.27-4.51-.28-6.89.17-10.4.7-12.58.34-24.22Z"/>
        <path class="cls-2" d="M57.28,149.02c.2-.02.4-.04.6-.06,1.96-.03,3.88-.06,5.81-.09.23.01.44.02.7.04-2.35.06-4.72.09-7.1.11Z"/>
        <path class="cls-2" d="M15.15,269.37c.21-.19.43-.39.6-1.2-.08,5.33-.16,10.64-.25,15.94-.05-.64-.09-1.25-.14-1.73-.15-3.54.07-9.07-.21-13.01Z"/>
        <path class="cls-2" d="M16.96,157.66c.23,0,.38-.12.56-.24.17-.12.37-.26.52-.31l.16.03s0,0,.06,0h.21s.41.02.41.02l1.65.05c1.1.04,2.21.07,3.32.11,2.23.07,4.48.13,6.78.2,4.6.13,9.4.24,14.6.33,1.61-.11,5.01-.12,8.22-.34,1.9.17,3.96.32,6.13.46-8.34-.03-16.73-.05-25.25-.08-4.26-.02-8.55-.03-12.88-.05-1.07,0-2.15,0-3.23-.01h-.42s-.88-.05-.88-.05c-.02.4-.03.81-.05,1.22-.02,3.03-.04,6.12-.06,9.22,0-3.03-.02-6.08-.03-9.18,0-.46,0-.93.03-1.38h.13Z"/>
        <path class="cls-2" d="M280.76,423.72c-30.45.32-65.62-.83-95.29.33,34.8.72,82.84.98,87.97,2.86,5.14,1.89-47.63.17-74.88.26q3.61.2,7.2.4c-3.59-.2-7.2-.4-10.41-.18,7.19.4,21.18.77,25.17,1.39l-6.41.45c18.36,1.41,52.78,1.72,71.14,3.13-38.55-1.96-83.6-2.72-131.09-2.92-23.75-.1-48.11-.06-72.58.04-25.74.13-51.59.27-77.02.4-.08-16.88-.15-33.56-.23-49.91-.64-60.87-2.31-117.36-4.19-170.28-.12-5-.15-13.51-.13-22.91.05-9.57.11-20.06.16-28.81-.03-5.69-.06-11.39-.1-17.07,6.19-.04,12.37-.07,18.55-.11l10.25-.12c6.83-.09,13.65-.18,20.46-.27,13.62-.2,27.19-.45,40.7-.78,32.04-.43,63.58-.38,95.66-.26,16.04.06,32.21.13,48.65.2,8.22.02,16.51.03,24.87.05,11.33-.01,22.77-.02,34.35-.04.43,0,.87,0,1.32,0,0,6.55-.11,13.66-.28,19.48-.17,3.02-.4,5.44-.65,6.51-.25,1.07-.52.78-.76-1.68-.06-.61-.12-1.37-.18-2.26-.03-.45-.05-.94-.08-1.46-.03-.57-.05-.9-.08-2.16-.1-4.27-.19-9.59-.26-16.14-.94.01-2.16.02-3.42.04-15.86.22-31.82.45-47.84.68-14.05.14-28.16.21-42.28.21,3.28-.58,16.72-.24,22.99-.67-20.81-.35-38.01-.5-58.43-.43,13.62-.05,27.22-.1,40.83-.14-34.02.12-71.65.04-108.89.38-13.63.05-25.56-1.81-44.82-.48,48.52.64,98.51,1.36,148.33,1.34-.09.01-.2.03-.25.04,22.22-.01,42.33-.02,63.77-.03-6.66.08-13.46.19-19.33.09,7.04.1,14.06.2,21.06.3,3.5.04,7,.07,10.49.11,5.43.03,10.86.06,16.29.09-.08,18.93-.16,37.79-.24,56.64-.16-8.3-.32-16.69-.48-25.16-.06-4.24-.12-8.49-.18-12.77-.05-5.86-.1-11.74-.15-17.66-10.67.07-21.43.14-32.23.21-9.21.03-18.46.07-27.75.1-18.57,0-37.24.01-55.87.02-37.25-.03-74.32-.07-109.95.23,24.77.97,57.65-.41,79.23.78-40.37.01-80.89-.14-122.34-.41,3.07-.07,6.08-.15,9.08-.25-3.58-.1-7.2-.17-10.84-.22-5.1-.03-10.24-.07-15.39-.11,0,6.22-.01,12.47-.02,18.73.02,4.78.03,9.57.05,14.35.04,9.55.08,19.03.02,28.29-.02,2.3-.04,4.58-.06,6.89.02-2.28.04-4.58.06-6.89.15-20.6.3-40.93.45-60.87,5.7.03,11.18.06,16.66.08-1.05.02-2.11.04-3.18.06-1.43.02-2.87.03-4.33.05-2.9.02-5.85.04-8.89.06,0,4.57,0,9.31.01,14.28-.02,3.69-.05,7.55-.07,11.62.16-2.93.29-6.39.39-10.17.05-2.27.09-4.64.14-7.07.04-2.63.08-5.34.12-8.07,2.5.03,5.04.07,7.59.1,14.07.04,28.14.08,42.07.12-7.95.02-15.87.07-23.66.15-8.59.12-17.05.23-25.29.34.05,2.94.1,5.84.14,8.72.05,2.53.11,5.03.16,7.51.05-5.22.11-10.47.17-15.77,24.57.16,49.59.32,74.1.48-15.67.07-31.32.15-46.95.22-8.8-.06-17.61-.12-26.62-.18-.1,18.29-.21,36.84-.31,55.55-.01-1.02-.03-2.05-.04-3.06,0,2.03.02,4.07.02,6.1-.03,10.46-.07,20.97-.1,31.53.03,9.48.27,18.78.57,28.02,0,1.57,0,3.13.01,4.69-.18-2.96-.37-4.4-.47,1.32-.55,24.4.39,50.86-.36,78.85-.2,7.34-.09,17.24.06,27.93-.14,2.9-.05,4.43.09,5.79.03,2.3.07,4.63.1,6.96.02,5.68.03,11.39.17,16.97-.02-5.53-.09-11.26-.17-16.97-.01-2.13-.03-4.26-.04-6.36.16,1.45.34,2.98.36,6.13.13-39.17.34-79.78.26-120.62.13,2.44.32,5.91.4,7.35-.14-4.01-.27-8.02-.41-12.04-.07-13.19-.14-26.38-.21-39.58.11,3.93.26,7.59.48,10.79,0-14.61,0-29.25.01-43.91-.04-15.02-.09-30.07-.13-45.15,8.75-.04,17.54-.08,26.33-.11,35.51.25,70.66.49,105.72.73-18.88-.55-38.64-.8-58.76-.96,53.49-.24,107.09-.38,160.47.18-9.63.67-22.86,1.14-28.89,2,.38.42,17.59.57,7.57.82-36.47,1.19-62.63.13-77.52,2.51-2.81.64,38.09,2.92,24.87,3.39-11.05.21-30.81.42-52.13.57-6.15-.03-12.53-.07-19.14-.11-.82-.05-2.2.09-3.95.24-23.1.1-45.11.12-57.29-.03-4.53-.05-9.01-.1-13.49-.16-.59-.04-1.15-.07-1.69-.1-.27-.02-.54-.04-.8-.06-.11-.01-.29-.02-.35-.03l-.08-.03c-.21-.09-.43-.18-.65-.29-.5.13-.93.24-1.32.32l.06.4-.04.9-.02.46c0,.2-.01.07-.02,1.08-.02,2.98-.05,5.96-.07,8.92-.04,5.93-.08,11.84-.12,17.73-.2,6.55-.41,13.07-.61,19.55.15-.14.35-1.18.5.06-.05,14.73-.1,29.36-.16,43.96-.19,5.93-.47,11.38-.87,16.21,1.32,15.86.5,52.45.7,77.88l.05-.04c-.02,12.79-.05,25.69-.07,38.74-.13,2.15-.28,4.2-.46,6.13.22,3.22.24,6.62.35,8.22-.09,5.2-.2,10-.33,14.59-.03,1.15-.07,2.29-.1,3.41l-.03.84c0,.18,0,.2-.01.24v.14s-.06.58-.06.58c-.07.83-.14,1.65-.21,2.47.02.08.04.16.08.25.8-.16,1.83-.47,2.69-.48h.79c.8.02,1.6.02,2.4.02,1.68,0,3.35,0,5,0,3.31-.01,6.57-.02,9.8-.03,7.56.05,15.2.11,22.94.17,26.02.23,51.64.55,77,.93.81.17,1,.38,1.21.59,3.94-.27,9.46-.06,13-.21-.67.07-1.1.16-.99.27,11.62-.36,13.79.16,24.22.34,2.35,0,4.55-.22,6.87-.28,1.14.02,2.29.04,3.45.06,11.81.95,23.56.63,36.71.66,13.13.25,26.25.49,39.38.74,10.41.18,14.38.8,21.58,1.19Z"/>
        <path class="cls-2" d="M14.97,315.9c-.22,12.27-.44,24.5-.66,36.72.03-13.15-.29-24.9.66-36.72Z"/>
        <path class="cls-2" d="M176.16,157.29c4.84.4,10.3.68,16.22.87-31.24-.04-62.33-.09-94.05-.13l-.04-.05c25.42-.19,62.02.63,77.87-.7Z"/>
        <path class="cls-2" d="M15.36,282.38c.05.48.1,1.09.14,1.73,0,.04,0,.07,0,.11-.07-.52-.11-1.15-.14-1.84Z"/>
        <path class="cls-2" d="M236.03,149.15c1.02,0,2.01,0,3.02.01-7.66.08-15.32.16-23,.24,6.13-.17,12.96-.22,19.98-.26Z"/>
        <path class="cls-2" d="M284.79,182.43c.07,15.64.15,31.31.22,46.96-.16,20.13-.41,39.9-.96,58.76.24-35.05.49-70.21.73-105.72Z"/>
        <path class="cls-2" d="M236.41,157.82c6.45.2,12.99.41,19.55.61-6.57-.04-13.1-.07-19.6-.11,1.23-.15.19-.35.06-.5Z"/>
        <path class="cls-2" d="M171.76,149.63c1.57,0,3.14,0,4.69-.01-4.01.14-8.03.28-12.04.41,1.46-.08,4.92-.27,7.35-.4Z"/>
        <path class="cls-2" d="M275.59,169.88c.03-2.41.05-4.81.08-7.21l.04-3.59.03-.14.07.07.04.05h.01s0,0,0,.03v.13s.03.53.03.53c.07,1.41.14,2.82.22,4.24-.22,1.55-.39,3.56-.52,5.89Z"/>
        <path class="cls-2" d="M275.66,244.63c-.04,6.59-.07,12.99-.11,19.13-.04-7.6-.09-15.4-.13-23.09.15,1.76.29,3.14.24,3.97Z"/>
      </g>
      <g>
        <path class="cls-2" d="M314.96,40.14c.24-1.19.61-2.34.81-3.54.08-.61.17-1.21.48-1.74.31-.53.65-1.05.98-1.58,1.31-2.09,2.65-4.11,3.95-6.03-1.04,1.53-2.04,3.07-3.01,4.63,1.45-2.33,2.91-4.22,4.64-6.52-.28.77-1.44,2.24-1.34,2.71-.84,1.43-1.74,2.85-2.63,4.27-.45.71-.91,1.41-1.38,2.11-.23.35-.49.69-.66,1.06-.18.37-.28.76-.39,1.14-.2.78-.54,1.51-.83,2.26l-.91,2.23c-.61,1.48-1.22,2.95-1.83,4.41-.56-2.78,1.67-3.73,2.13-5.43Z"/>
        <path class="cls-2" d="M327.12,19.19c-.39.56-.76,1.11-1.11,1.66.36-.59.76-1.15,1.11-1.66Z"/>
        <path class="cls-2" d="M307.94,82.65c-.14.73-.29,1.46-.47,2.16.08-.73.28-1.44.47-2.16Z"/>
        <path class="cls-2" d="M315.58,49.18c0,.4-.04.8-.1,1.2-.99,2.8-2.03,5.63-3.1,8.51,1.1-3.14,1.59-6.71,3.2-9.71Z"/>
        <path class="cls-2" d="M317.68,46.45c.81-2.92,1.92-5.79,3.31-8.38-1.26,2.62-2.33,5.46-3.31,8.38Z"/>
        <path class="cls-2" d="M307.98,106.33c.11.02.18.1.22.2,0,.1.02.19.07.27l-1.5,3.37c.03-.31-.09-.64-.01-.94.55-1.24,1.14-1.36,1.23-2.91Z"/>
        <path class="cls-2" d="M308.13,81.85l-.04-.09c.05-.25.09-.5.13-.75.02-.03.04-.05.06-.08-.03.31-.09.61-.16.91Z"/>
        <path class="cls-2" d="M308.49,104.85c.21.04.42.07.62.02l-.83,1.91c-.02-.09-.04-.18-.07-.26-.01-.48.4-1.11.29-1.68Z"/>
        <path class="cls-2" d="M314.62,90.3c.12-.43-.19-.93-.23-1.16.6-1.01,1.2-2.02,1.76-3.26-.05-.23.07-.66-.02-1.12.24-.19.46-.4.66-.63-.91,2.82-1.86,5.7-2.91,8.64.21-.81.44-1.63.74-2.47Z"/>
        <path class="cls-2" d="M286.1,156.24c.84-1.81,1.77-3.75,2.72-5.68.94-1.93,1.9-3.83,2.23-5.74-2.26,4.03-4.58,9.84-4.84,10.46-.14.31.1-1.23.54-3.26.44-2.03,1.23-4.5,1.63-6.23q-.23.42-.46.84c.22-.42.46-.84.4-1.29-.48.83-1.04,2.56-1.4,2.99-.04-.3-.08-.6-.13-.91-1.02,2.18-1.25,6.77-.95,9.35-.21-1.58-.15-3.15-.07-4.78.14-1.61.35-3.25.6-4.94.26-1.68.55-3.4.85-5.15.14-.88.29-1.76.44-2.65.1-.9.38-1.76.72-2.61,2.2-6.92,3.77-14.35,5.63-21.16,1.66-7.74,2.16-15.24,2.33-22.36.14-1.31,1.16-4.26,1.94-6.35.83-3.87,1.66-7.74,2.07-11.69,1.57-8.21,4.89-15.62,7.21-24.18.46-1.71,2.92-3.51,2.19.83-.43,3.64-1.25,7.21-2.29,10.72-.43-.57.39-2.15.21-3.05-1.11,2.48-1.9,4.58-2.59,7.13l1.39-5.11c-1.15,4.26-2.63,8.91-3.69,13.64-.46,1.71-2.69,2.65-2.13,5.43,2.42-5.84,4.97-11.85,6.81-18.04.01.02.02.03.03.04.75-2.78,1.57-5.26,2.35-7.93-.17.85-.32,1.73-.64,2.43,1.67-3.73,2.91-7.52,4.16-11.32-1.33,11.37-6.23,23.01-8.81,34.17,1.85-2.8,1.75-7.28,3.7-9.62-1.49,5.02-3.15,10.01-4.95,15.08.05-.4.09-.8.1-1.2-1.61,2.99-2.1,6.56-3.2,9.71-.1.28-.21.56-.31.84l.31-.84c1.07-2.87,2.11-5.7,3.1-8.51-.18,1.37-.59,2.76-1.2,4.38.65-.78,1.2-2.02,1.76-3.26.55-1.68,1.09-3.37,1.64-5.04-.73,2.61-1.23,5.26-1.49,7.74,1.44-3.41,2.55-7.03,3.83-10.51-.51,1.97-1.03,3.93-1.54,5.9-1.16,3.21-2.32,6.44-3.43,9.73l.08-.39-.2.76c-.42,1.29-.85,2.59-1.27,3.89-.32,1.19-.44,2.41-.5,3.65l-.16.59c-.07-.42-.19-.65-.49.03-1.43,2.87-1.52,6.43-3.28,9.69-.46.86-.73,2.12-.98,3.49-.24.32-.22.53-.13.74-.05.3-.11.6-.16.89-.19.71-.4,1.42-.47,2.16.19-.69.34-1.42.47-2.16l.2-.8c.1.23.22.47.11.86,1.59-4.83,3.3-9.81,4.74-14.91.05.35.07.82.11,1.03.02-.54.04-1.08.05-1.61.46-1.65.89-3.31,1.27-4.98-.04.52-.03,1.02.06,1.48,1.49-4.64,2.76-9.38,4-14.14,1.58-4.34,3.16-8.62,4.64-12.92-1.23,2.19-2.21,4.57-3.11,7.03,1.76-6.71,3.63-13.41,6.15-19.88.28,1.39.24,3.17.84,4.16.42.07,1.2-2.02,1.07-.71-.22,4.87-2.21,7.82-.49,10.35.51.53,4.22-3.89,4.17-2.11-.21,1.43-.75,3.95-1.4,6.64-.29.75-.56,1.53-.82,2.35-.07.09,0,.3.08.56-.76,2.9-1.57,5.64-2.16,7.11-.22.55-.44,1.09-.65,1.63-.21.25-.45.45-.72.59.05.4.06.78.04,1.16-.56,1.46-1.09,2.9-1.6,4.34-.44.75-.91,1.5-1.31,2.25.15.03.38-.05.48.15-.62,1.81-1.21,3.61-1.79,5.42-.41.68-.88,1.28-1.44,1.76.68,2.35-1.48,6.66-2.24,9.87h.05c-.5,1.59-1,3.19-1.51,4.8-.2.23-.43.44-.66.63.09.46-.02.89.03,1.12-.56,1.24-1.16,2.25-1.76,3.26.05.23.35.73.23,1.16-.3.83-.53,1.66-.74,2.47-.33.92-.67,1.86-1.01,2.8-.59,1.58-1.21,3.15-1.84,4.7l-.95,2.31c-.34.76-.64,1.53-.85,2.33-.19.05-.4.02-.61-.02.18.59-.31,1.19-.43,1.63-.02-.1-.07-.17-.19-.19-.46,1.43-1.1,1.54-1.93,2.7-.15.27-.13.58-.24.86l-.29.38c-1.51,1.15-1.97,2.6-2.92,4.09-1.02,1.47-1.93,2.97-2.86,4.47-.72,1.19-1.04,1.64-1.47,2.48Z"/>
        <path class="cls-2" d="M306.59,110.58c-.67,1.46-1.34,2.92-2,4.37.52-1.63.65-3.18,2-4.37Z"/>
        <path class="cls-2" d="M320.49,69.46c.56-.49,1.04-1.08,1.44-1.76-1.21,3.87-2.41,7.72-3.63,11.65h-.05c.76-3.22,2.91-7.53,2.24-9.88Z"/>
        <path class="cls-2" d="M308.21,106.53c.03.08.05.16.07.26h0c-.04-.07-.06-.16-.07-.26Z"/>
        <path class="cls-2" d="M314.93,59.68l.13-.37c-.19.98-.4,1.96-.62,2.93.07-.81.27-1.67.5-2.56Z"/>
        <path class="cls-2" d="M318.49,49.59l1.54-5.9c.89-2.46,1.91-4.83,3.11-7.03-1.48,4.3-3.07,8.59-4.64,12.92Z"/>
        <path class="cls-2" d="M323.24,62.13c.41-.75.87-1.5,1.31-2.25-.28.81-.56,1.61-.84,2.4-.1-.2-.33-.12-.48-.15Z"/>
        <path class="cls-2" d="M312.99,67.81l.16-.59c-.02.53-.03,1.07-.05,1.62-.04-.21-.06-.68-.11-1.03Z"/>
        <path class="cls-2" d="M326.82,53.79c-.23.58-.45,1.17-.68,1.74.02-.38.01-.76-.04-1.16.27-.13.5-.33.72-.58Z"/>
        <path class="cls-2" d="M329.55,44.48c.26-.81.52-1.6.82-2.35-.24.96-.49,1.94-.73,2.91-.08-.26-.16-.47-.08-.56Z"/>
      </g>
      <g>
        <path class="cls-2" d="M55.35,334.78c1.89-3.83,4.16-7.48,6.05-10.88-.76,1.36-1.51,2.72-2.27,4.08,1.13-2.04,2.27-3.65,3.79-5.51,0,.84-1.08,1.98-.77,2.6-2.9,4.89-6.44,9.43-9.83,13.86-.02-2.57,2.28-2.79,3.03-4.15Z"/>
        <path class="cls-2" d="M66.71,317.39c-.28.5-.56.98-.83,1.46.25-.53.5-1.05.83-1.46Z"/>
        <path class="cls-2" d="M40.79,369.91c-.27.6-.54,1.2-.85,1.75.21-.62.54-1.18.85-1.75Z"/>
        <path class="cls-2" d="M54.27,342.83c-.08.35-.19.68-.31,1.02-1.46,2.17-2.98,4.36-4.53,6.57,1.63-2.44,2.75-5.42,4.85-7.58Z"/>
        <path class="cls-2" d="M56.78,341.03c1.32-2.32,2.9-4.53,4.71-6.4-1.69,1.94-3.23,4.12-4.71,6.4Z"/>
        <path class="cls-2" d="M36.44,390.56c.1.05.15.14.17.24-.01.08-.01.17.01.25-.68.85-1.37,1.69-2.06,2.53.09-.26.03-.58.16-.82.76-.93,1.33-.88,1.71-2.2Z"/>
        <path class="cls-2" d="M41.12,369.27s-.01-.06-.02-.09c.09-.21.18-.41.27-.61.02-.02.04-.03.07-.05-.09.26-.2.51-.32.75Z"/>
        <path class="cls-2" d="M37.2,389.42c.19.09.39.18.58.19-.38.48-.76.96-1.14,1.44,0-.09,0-.17-.02-.24.08-.42.59-.86.58-1.38Z"/>
        <path class="cls-2" d="M45.74,378.41c.19-.34,0-.86,0-1.07.76-.72,1.52-1.43,2.28-2.36,0-.21.19-.55.19-.98.26-.1.51-.22.75-.37-1.39,2.21-2.83,4.45-4.37,6.74.35-.65.72-1.3,1.17-1.95Z"/>
        <path class="cls-2" d="M8.3,429.24c1.51-3.15,4.55-6.01,5.29-9.52-2.66,3.04-5.69,7.62-7.61,7.16-1.92-.46,2.64-4.76,4.16-7.48q-.38.25-.76.5c.38-.25.76-.5.76-.93-.76.5-1.9,1.68-2.67,1.76v-.86c-2.3,1.08-4.57,4.3-6.86,5.37,9.15-6.45,14.79-19.65,20.83-30.52,3.02-6.3,4.88-12.7,6.37-18.85.37-1.11,1.89-3.4,3.03-5.01,1.51-3.15,3.02-6.3,4.14-9.62,3.01-6.73,7.55-12.27,11.35-19.11.76-1.36,3.43-2.26,1.93,1.32-1.09,3.05-2.52,5.94-4.17,8.72-.31-.62.77-1.76.77-2.6-1.52,1.86-2.65,3.47-3.79,5.51.76-1.36,1.51-2.72,2.27-4.08-1.89,3.4-4.16,7.05-6.04,10.88-.76,1.36-3.05,1.58-3.03,4.15,3.39-4.43,6.93-8.97,9.83-13.86,0,.02.01.03.02.05,1.23-2.22,2.47-4.16,3.7-6.27-.32.69-.63,1.42-1.06,1.94,2.28-2.79,4.17-5.76,6.06-8.73-3.37,9.55-10.2,18.35-14.73,27.37,2.28-1.93,3.02-5.87,5.31-7.37-2.35,3.96-4.86,7.86-7.51,11.79.12-.34.23-.67.31-1.02-2.09,2.17-3.21,5.15-4.85,7.59-.15.22-.3.43-.45.65.16-.21.31-.43.45-.65,1.55-2.21,3.07-4.39,4.53-6.57-.42,1.14-1.07,2.24-1.95,3.49.76-.5,1.52-1.43,2.28-2.36.82-1.32,1.65-2.65,2.49-3.94-1.18,2.08-2.15,4.24-2.85,6.34,2-2.58,3.74-5.43,5.6-8.11-.86,1.57-1.7,3.15-2.56,4.72-1.7,2.48-3.4,4.98-5.07,7.54.05-.11.1-.21.15-.32-.11.2-.23.41-.34.61-.65,1-1.3,2.02-1.93,3.04-.53.95-.87,1.98-1.15,3.04-.09.16-.18.31-.26.47.02-.38-.06-.62-.48-.11-1.9,2.11-2.64,5.19-4.92,7.55-.6.62-1.09,1.64-1.58,2.77-.29.21-.3.41-.27.61-.1.24-.21.49-.32.73-.31.57-.64,1.13-.85,1.75.31-.55.58-1.15.85-1.75.12-.21.23-.43.34-.64.05.22.12.47-.05.78,2.4-3.77,4.96-7.65,7.28-11.7-.01.32-.09.73-.09.93.11-.47.23-.93.35-1.39.74-1.31,1.46-2.64,2.13-3.99-.14.44-.22.88-.22,1.31,2.28-3.64,4.37-7.42,6.43-11.23,2.3-3.35,4.61-6.65,6.82-9.99-1.57,1.57-2.95,3.38-4.26,5.27,2.92-5.37,5.95-10.7,9.54-15.65,0,1.29-.36,2.83.03,3.86.39.18,1.52-1.43,1.15-.32-1.12,4.18-3.56,6.21-2.39,8.89.39.61,4.74-2.24,4.37-.7-.47,1.19-1.44,3.24-2.56,5.4-.42.57-.81,1.18-1.21,1.82-.09.06-.05.26-.02.51-1.26,2.32-2.54,4.48-3.37,5.61-.31.42-.62.83-.92,1.24-.25.16-.51.27-.79.32-.02.36-.09.7-.18,1.02-.8,1.12-1.57,2.23-2.32,3.35-.56.54-1.14,1.06-1.67,1.6.14.06.37.06.43.26-.92,1.41-1.82,2.82-2.71,4.23-.51.48-1.07.87-1.7,1.14.21,2.23-2.64,5.4-3.96,7.99l.04.02c-.76,1.25-1.54,2.5-2.33,3.76-.24.14-.49.27-.75.37,0,.43-.18.77-.18.98-.76.93-1.52,1.64-2.28,2.36,0,.21.2.73,0,1.07-.44.65-.81,1.3-1.16,1.95-.48.72-.98,1.44-1.49,2.16-1.72,2.44-3.49,4.78-5.3,7.08-.19,0-.39-.1-.58-.19,0,.53-.51.96-.58,1.38-.02-.1-.07-.19-.17-.24-.37,1.32-.95,1.27-1.71,2.2-.13.23-.08.56-.16.82-.08.1-.17.2-.25.31-1.51.67-1.92,1.99-2.72,3.26-.98,1.16-1.96,2.32-2.94,3.48-.76.93-1.53,1-2.29,1.51Z"/>
        <path class="cls-2" d="M34.32,393.89c-.9,1.09-1.81,2.18-2.72,3.26.79-1.28,1.21-2.59,2.72-3.26Z"/>
        <path class="cls-2" d="M55.18,361.85c.63-.27,1.19-.66,1.7-1.14-1.89,3.03-3.72,6.07-5.61,9.16l-.04-.02c1.32-2.59,4.17-5.76,3.96-7.99Z"/>
        <path class="cls-2" d="M36.62,390.8c.02.07.02.16.02.24,0,0,0,0,0,.01-.03-.08-.03-.17-.01-.25Z"/>
        <path class="cls-2" d="M51.7,351.8c.06-.1.12-.19.19-.29-.36.8-.74,1.59-1.14,2.38.22-.69.57-1.39.95-2.09Z"/>
        <path class="cls-2" d="M56.96,343.98c.85-1.57,1.7-3.15,2.56-4.72,1.31-1.89,2.69-3.7,4.26-5.27-2.21,3.34-4.51,6.64-6.82,9.99Z"/>
        <path class="cls-2" d="M59.16,356.21c.53-.54,1.11-1.07,1.67-1.6-.42.62-.83,1.24-1.24,1.87-.06-.2-.29-.2-.43-.26Z"/>
        <path class="cls-2" d="M48.35,358.35c.09-.16.18-.31.26-.47-.12.46-.24.93-.35,1.39,0-.2.07-.61.08-.93Z"/>
        <path class="cls-2" d="M64.12,349.92c-.33.45-.65.89-.97,1.34.09-.32.15-.66.18-1.02.28-.04.54-.15.79-.31Z"/>
        <path class="cls-2" d="M68.44,342.56c.4-.64.8-1.25,1.21-1.82-.4.77-.82,1.56-1.24,2.33-.03-.25-.06-.45.03-.51Z"/>
      </g>
    </g>
    <g id="Titre_-_copie" data-name="Titre - copie">
      <g>
        <path class="cls-1" d="M537.03,125.92h36.21c17.27,0,30.63,4.67,40.08,14.02,9.44,9.34,14.17,22.6,14.17,39.77s-4.72,30.61-14.17,40c-9.45,9.39-22.8,14.09-40.08,14.09h-36.21v-107.88ZM572.48,223.19c13.94,0,24.42-3.64,31.44-10.91,7.02-7.27,10.53-18.13,10.53-32.58,0-28.79-13.99-43.18-41.97-43.18h-23.03v86.67h23.03Z"/>
        <path class="cls-1" d="M695.49,214.39h-39.46l-8.38,19.41h-9.02l33.2-75.52h7.64l33.2,75.52h-8.91l-8.27-19.41ZM692.41,207.18l-16.65-38.82-16.65,38.82h33.3Z"/>
        <path class="cls-1" d="M781.72,158.28l-32.99,75.52h-7.64l-32.99-75.52h9.23l27.68,64.49,27.68-64.49h9.01Z"/>
        <path class="cls-1" d="M791.15,158.28h8.7v75.52h-8.7v-75.52Z"/>
        <path class="cls-1" d="M818.52,158.28h25.35c12.09,0,21.44,3.27,28.05,9.81,6.61,6.54,9.92,15.82,9.92,27.84s-3.31,21.42-9.92,28c-6.61,6.58-15.96,9.86-28.05,9.86h-25.35v-75.52ZM843.34,226.38c9.76,0,17.09-2.54,22.01-7.64,4.91-5.09,7.37-12.69,7.37-22.8,0-20.15-9.79-30.23-29.38-30.23h-16.12v60.67h16.12Z"/>
        <path class="cls-1" d="M1026.49,177.59v50c-4.24,2.22-9.8,4.01-16.67,5.38-6.87,1.36-13.84,2.04-20.91,2.04-10.71,0-19.95-2.2-27.73-6.59-7.78-4.39-13.71-10.73-17.8-19.02-4.09-8.28-6.14-18.18-6.14-29.7s2.04-21.24,6.14-29.47c4.09-8.23,9.95-14.55,17.58-18.94,7.63-4.39,16.64-6.59,27.05-6.59,7.58,0,14.52,1.14,20.83,3.41,6.31,2.27,11.74,5.68,16.29,10.23l-4.85,9.55c-5.25-4.44-10.38-7.65-15.38-9.62-5-1.97-10.63-2.96-16.89-2.96-12.22,0-21.59,3.81-28.11,11.44-6.52,7.63-9.77,18.61-9.77,32.96s3.33,25.78,10,33.41c6.67,7.63,16.36,11.44,29.09,11.44,8.99,0,17.63-1.41,25.91-4.24v-32.88h-26.82v-9.85h38.18Z"/>
        <path class="cls-1" d="M1055,226.96c-5.06-5.13-7.58-12.71-7.58-22.75v-45.93h8.59v46.67c0,7.36,1.8,12.91,5.41,16.65,3.61,3.75,8.94,5.62,16.02,5.62s12.29-1.87,15.86-5.62c3.57-3.75,5.36-9.3,5.36-16.65v-46.67h8.7v45.93c0,9.97-2.54,17.54-7.64,22.7-5.09,5.16-12.52,7.74-22.27,7.74s-17.38-2.56-22.43-7.69Z"/>
        <path class="cls-1" d="M1125.48,158.28h8.7v75.52h-8.7v-75.52Z"/>
        <path class="cls-1" d="M1152.84,158.28h8.7v68.09h37.86v7.42h-46.56v-75.52Z"/>
        <path class="cls-1" d="M1210.65,158.28h8.7v68.09h37.86v7.42h-46.56v-75.52Z"/>
        <path class="cls-1" d="M1268.45,158.28h47.73v7.21h-39.14v26.3h37.02v7.32h-37.02v27.47h39.14v7.21h-47.73v-75.52Z"/>
        <path class="cls-1" d="M1402.2,158.28v75.52h-8.06v-56.11l-24.5,56.11h-6.15l-24.71-55.68.11,55.68h-8.06v-75.52h7.21l28.64,65.12,28.32-65.12h7.21Z"/>
        <path class="cls-1" d="M1420.87,158.28h47.73v7.21h-39.14v26.3h37.02v7.32h-37.02v27.47h39.14v7.21h-47.73v-75.52Z"/>
        <path class="cls-1" d="M1500.2,165.71h-26.3v-7.42h61.41v7.42h-26.3v68.09h-8.8v-68.09Z"/>
        <path class="cls-1" d="M1564.16,165.71h-26.3v-7.42h61.41v7.42h-26.3v68.09h-8.8v-68.09Z"/>
        <path class="cls-1" d="M1609.87,158.28h47.73v7.21h-39.14v26.3h37.02v7.32h-37.02v27.47h39.14v7.21h-47.73v-75.52Z"/>
      </g>
      <g>
        <path class="cls-1" d="M535.98,288.79h4.19l18.21,50.29,17.68-50.29h3.96l-19.28,54.48h-5.03l-19.74-54.48Z"/>
        <path class="cls-1" d="M587.04,291.99c0-1.52,1.3-2.82,2.9-2.82s2.82,1.29,2.82,2.82c0,1.6-1.22,2.9-2.82,2.9s-2.9-1.29-2.9-2.9ZM587.95,303.42h4.04v39.85h-4.04v-39.85Z"/>
        <path class="cls-1" d="M601.67,323.92v-.61c0-12.27,8-20.5,18.52-20.5,7.85,0,12.27,4.5,14.55,9.45v-27.89h4.04v58.9h-4.04v-9.22c-2.13,4.8-7.7,9.83-15.16,9.83-10.13,0-17.91-7.32-17.91-19.96ZM634.82,323.61v-.61c0-10.97-5.94-16.76-14.25-16.76s-14.71,6.17-14.71,16.92v.61c0,10.9,6.17,16.69,14.1,16.69s14.86-5.87,14.86-16.84Z"/>
        <path class="cls-1" d="M648.3,323.76v-.61c0-12.04,7.62-20.35,18.29-20.35,9.6,0,17.45,6.25,17.45,19.43v1.45h-31.55c.15,10.67,5.26,16.76,14.71,16.76,6.63,0,11.13-2.74,12.5-8.31h4.04c-1.68,7.62-8,11.74-16.54,11.74-11.51,0-18.9-8.15-18.9-20.12ZM679.85,320.41c-.38-9.68-5.49-14.17-13.26-14.17s-13.18,5.49-13.95,14.17h27.2ZM669.56,285.97h4.95l-7.01,11.2h-3.12l5.18-11.2Z"/>
        <path class="cls-1" d="M690.52,323.69v-.61c0-11.96,8.61-20.27,19.28-20.27s19.2,8.08,19.2,20.19v.61c0,12.04-8.53,20.27-19.28,20.27s-19.2-8.46-19.2-20.19ZM724.81,323.69v-.61c0-10.52-6.55-16.84-15.01-16.84s-15.09,6.48-15.09,16.84v.61c0,10.21,6.4,16.76,15.09,16.76s15.01-6.48,15.01-16.76Z"/>
      </g>
      <g>
        <path class="cls-1" d="M937.5,286.38h31.32v3.5h-27.05v21.26h21.95v3.5h-21.95v22.71h28.42v3.5h-32.69v-54.48Z"/>
        <path class="cls-1" d="M976.66,317.85h15.93v3.81h-15.93v-3.81Z"/>
        <path class="cls-1" d="M1003.72,281.96h4.11v58.9h-4.11v-58.9Z"/>
        <path class="cls-1" d="M1017.51,321.35v-.61c0-12.04,7.62-20.35,18.29-20.35,9.6,0,17.45,6.25,17.45,19.43v1.45h-31.55c.15,10.67,5.26,16.76,14.71,16.76,6.63,0,11.13-2.74,12.5-8.31h4.04c-1.68,7.62-8,11.74-16.54,11.74-11.51,0-18.9-8.15-18.9-20.12ZM1049.05,318c-.38-9.68-5.49-14.17-13.26-14.17s-13.18,5.49-13.95,14.17h27.2Z"/>
        <path class="cls-1" d="M1060.18,330.12c0-9.22,8.84-12.04,18.67-12.04h8.31v-3.58c0-7.47-3.05-10.67-10.06-10.67-6.02,0-10.29,2.59-11.2,8.46h-3.96c.91-8.38,7.77-11.89,15.32-11.89,8.31,0,13.95,3.96,13.95,14.1v26.37h-4.04v-6.1c-2.51,3.89-6.78,6.71-13.49,6.71-7.85,0-13.49-3.81-13.49-11.35ZM1087.15,327.98v-6.78h-8.15c-8.31,0-14.78,1.75-14.78,8.92,0,5.11,3.2,8.08,9.75,8.08,7.32,0,13.18-4.27,13.18-10.21Z"/>
        <path class="cls-1" d="M1103.38,301.01h4.04v8.38c2.21-4.88,6.17-8.69,13.49-8.92v3.81c-7.7.3-13.49,3.89-13.49,14.48v22.1h-4.04v-39.85Z"/>
        <path class="cls-1" d="M1129.9,301.01h4.04v7.77c1.83-4.34,7.01-8.38,14.1-8.38,8.46,0,14.17,4.57,14.17,15.93v24.54h-4.04v-24.77c0-8.46-3.96-12.19-11.05-12.19-6.63,0-13.18,4.42-13.18,12.8v24.16h-4.04v-39.85Z"/>
        <path class="cls-1" d="M1173.56,289.58c0-1.52,1.3-2.82,2.9-2.82s2.82,1.29,2.82,2.82c0,1.6-1.22,2.9-2.82,2.9s-2.9-1.29-2.9-2.9ZM1174.48,301.01h4.04v39.85h-4.04v-39.85Z"/>
        <path class="cls-1" d="M1191.17,301.01h4.04v7.77c1.83-4.34,7.01-8.38,14.1-8.38,8.46,0,14.17,4.57,14.17,15.93v24.54h-4.04v-24.77c0-8.46-3.96-12.19-11.05-12.19-6.63,0-13.18,4.42-13.18,12.8v24.16h-4.04v-39.85Z"/>
        <path class="cls-1" d="M1233.46,343.15h4.11c1.07,5.11,5.33,8.61,13.64,8.61s14.48-3.89,14.48-13.72v-8.15c-2.13,4.8-7.7,9.68-15.09,9.68-10.13,0-17.98-7.47-17.98-19.05v-.53c0-11.35,8-19.58,18.52-19.58,7.85,0,12.27,4.34,14.55,9.22v-8.61h4.04v37.19c-.08,11.74-7.77,16.99-18.44,16.99-11.51,0-16.84-5.64-17.83-12.04ZM1265.77,320.29v-.61c0-10.06-5.94-15.85-14.25-15.85s-14.71,6.1-14.71,16v.61c0,9.91,6.25,15.7,14.17,15.7s14.78-5.87,14.78-15.85Z"/>
      </g>
      <circle class="cls-2" cx="833.1" cy="322.18" r="8.51"/>
      <circle class="cls-2" cx="1402.84" cy="322.18" r="8.51"/>
      <g>
        <path class="cls-1" d="M1506.72,288.79h4.27l12.5,48.01,14.4-48.01h2.97l13.87,48.16,13.18-48.16h3.89l-14.94,54.48h-4.12l-13.41-46.94-14.17,46.94h-4.04l-14.4-54.48Z"/>
        <path class="cls-1" d="M1574.39,323.76v-.61c0-12.04,7.62-20.35,18.29-20.35,9.6,0,17.45,6.25,17.45,19.43v1.45h-31.55c.15,10.67,5.26,16.76,14.71,16.76,6.63,0,11.13-2.74,12.5-8.31h4.04c-1.68,7.62-8,11.74-16.54,11.74-11.51,0-18.9-8.15-18.9-20.12ZM1605.94,320.41c-.38-9.68-5.49-14.17-13.26-14.17s-13.18,5.49-13.95,14.17h27.2Z"/>
        <path class="cls-1" d="M1623.61,334.2v9.07h-4.04v-58.9h4.04v28.35c2.29-5.18,8.15-9.91,15.16-9.91,10.06,0,17.91,7.7,17.91,20.12v.61c0,12.5-7.62,20.35-17.91,20.35-7.85,0-13.03-4.8-15.16-9.68ZM1652.5,323.69v-.61c0-10.97-6.48-16.84-14.1-16.84s-14.86,5.87-14.86,16.84v.61c0,10.9,6.63,16.76,14.94,16.76s14.02-6.1,14.02-16.76Z"/>
      </g>
    </g>
  </g>
</svg>